HIERARCHY
ROOT Hips
{
  OFFSET 0 33.9601 0
  CHANNELS 6 Xposition Yposition Zposition Zrotation Xrotation Yrotation
  JOINT RightHipJoint
  {
    OFFSET 0 0 0
    CHANNELS 3 Zrotation Xrotation Yrotation
    JOINT RightUpLeg
    {
      OFFSET -2.97451 -2.05947 0
      CHANNELS 3 Zrotation Xrotation Yrotation
      JOINT RightLeg
      {
        OFFSET 0 -16.9295 0
        CHANNELS 3 Zrotation Xrotation Yrotation
        JOINT RightFoot
        {
          OFFSET 0 -12.3084 0
          CHANNELS 3 Zrotation Xrotation Yrotation
          JOINT RightToeBase
          {
            OFFSET 0 -1.45952 4.1706
            CHANNELS 3 Zrotation Xrotation Yrotation
            End Site
            {
              OFFSET 0 0.380528 1.88646
            }
          }
        }
      }
    }
  }
  JOINT LeftHipJoint
  {
    OFFSET 0 0 0
    CHANNELS 3 Zrotation Xrotation Yrotation
    JOINT LeftUpLeg
    {
      OFFSET 2.97451 -2.05947 0
      CHANNELS 3 Zrotation Xrotation Yrotation
      JOINT LeftLeg
      {
        OFFSET 0 -16.9295 0
        CHANNELS 3 Zrotation Xrotation Yrotation
        JOINT LeftFoot
        {
          OFFSET 0 -12.3084 0
          CHANNELS 3 Zrotation Xrotation Yrotation
          JOINT LeftToeBase
          {
            OFFSET 0 -1.45952 4.1706
            CHANNELS 3 Zrotation Xrotation Yrotation
            End Site
            {
              OFFSET 0 0.380528 1.88646
            }
          }
        }
      }
    }
  }
  JOINT LowerBack
  {
    OFFSET -0.0036625 0.510784 -2.23482
    CHANNELS 3 Zrotation Xrotation Yrotation
    JOINT Spine
    {
      OFFSET 0.00406798 3.05724 0.271409
      CHANNELS 3 Zrotation Xrotation Yrotation
      JOINT Spine1
      {
        OFFSET 0 3.94532 0.605325
        CHANNELS 3 Zrotation Xrotation Yrotation
        JOINT RightShoulder
        {
          OFFSET -2.46238 6.7817 0.985371
          CHANNELS 3 Zrotation Xrotation Yrotation
          JOINT RightDummyShoulder
          {
            OFFSET 0 0 0
            CHANNELS 3 Zrotation Xrotation Yrotation
            JOINT RightArm
            {
              OFFSET -3.41514 0.382168 0.208038
              CHANNELS 3 Zrotation Xrotation Yrotation
              JOINT RightForeArm
              {
                OFFSET -6.74994 0 -0.448006
                CHANNELS 3 Zrotation Xrotation Yrotation
                JOINT RightHand
                {
                  OFFSET -7.67291 0 0
                  CHANNELS 3 Zrotation Xrotation Yrotation
                  End Site
                  {
                    OFFSET -3.75012 0 0
                  }
                }
              }
            }
          }
        }
        JOINT LeftShoulder
        {
          OFFSET 2.46238 6.7817 0.985371
          CHANNELS 3 Zrotation Xrotation Yrotation
          JOINT LeftDummyShoulder
          {
            OFFSET 0 0 0
            CHANNELS 3 Zrotation Xrotation Yrotation
            JOINT LeftArm
            {
              OFFSET 3.41514 0.382168 0.208038
              CHANNELS 3 Zrotation Xrotation Yrotation
              JOINT LeftForeArm
              {
                OFFSET 6.74994 0 -0.448006
                CHANNELS 3 Zrotation Xrotation Yrotation
                JOINT LeftHand
                {
                  OFFSET 7.67291 0 0
                  CHANNELS 3 Zrotation Xrotation Yrotation
                  End Site
                  {
                    OFFSET 3.75012 0 0
                  }
                }
              }
            }
          }
        }
        JOINT Neck
        {
          OFFSET 0 7.72218 0.649176
          CHANNELS 3 Zrotation Xrotation Yrotation
          JOINT Head
          {
            OFFSET 0 2.8134 0.8129
            CHANNELS 3 Zrotation Xrotation Yrotation
            End Site
            {
              OFFSET 0 3.18746 0.758962
            }
          }
        }
      }
    }
  }
}
MOTION
Frames:	12
Frame Time:	0.0333333
0 33.9601 0 0 0 -0 0 0 -0 -0 -0.0322574 -0 0 0.0766298 -0 -0 -0.0443724 -0 0 0 -0 0 0 -0 -0 -0.0322574 -0 0 0.0766298 -0 -0 -0.0443724 -0 0 0 -0 0 0 -0 0 0 -0 0 0 -0 0 0 -0 0 0 -0 1.35539e-05 -3.43915e-06 1.10991e-05 -1.35539e-05 -3.39104e-06 -2.07584e-05 -5.75742e-13 6.83019e-06 9.65935e-06 0 0 -0 0 0 -0 -1.35397e-05 -3.8658e-06 -1.53679e-05 1.35397e-05 3.86581e-06 2.50273e-05 1.22773e-28 -3.27688e-28 -9.65935e-06 0 0 -0 0 0 -0 
-3.92231 33.4518 7.50545 -3.46716 -1.27967 -6.85168 -1.49089e-16 0 -1.59028e-15 5.73376 -0.412054 -3.1482 -3.35102e-06 11.7441 -0.0934398 -22.5215 -20.8825 -4.45957 -4.62979e-06 -16.9698 3.12128e-07 -1.49089e-16 0 -1.59028e-15 5.86776 -8.83003 -4.5617 -5.35296e-07 28.508 0.0634044 4.34274 -21.8795 -6.32028 1.64546e-06 -12.8258 2.33044e-06 -1.49089e-16 0 -1.59028e-15 0.436207 -4.97266 2.62699 1.44302 14.2619 1.11387 3.31752 12.6202 -15.5111 7.95139e-16 6.36111e-15 -0 63.7557 -8.67118 41.368 -0.0205316 0.00124884 71.6813 10.6143 -53.5059 14.7575 -1.41002 18.4626 11.1045 -1.19271e-15 0 -0 -73.1315 -5.89197 -43.3728 -0.00239011 -0.000349169 -75.2525 -64.6285 -60.2668 -67.0105 -2.75456 6.89915 2.39139 5.70939 11.3299 -5.20463 
-4.02524 33.477 7.52004 -3.05667 -1.61557 -7.06313 -1.98785e-16 0 -0 5.55855 0.0519787 -2.43133 8.98121e-06 11.3579 -0.0893414 -22.7436 -20.1534 -4.67567 1.63733e-06 -18.0499 5.54167e-07 -1.98785e-16 0 -0 5.19571 -8.79451 -3.73625 1.6979e-06 30.0502 0.0728232 4.82829 -22.4941 -6.10976 -9.87885e-07 -15.4058 9.19867e-06 -1.98785e-16 0 -0 0.423377 -5.0265 2.66077 0.911443 14.3388 1.14552 3.06691 12.4313 -15.2693 -7.95139e-16 -3.18055e-15 9.54166e-15 64.0082 -7.45113 41.6111 -0.00801845 0.000307652 69.9102 11.5783 -54.0087 14.9534 -1.5451 18.4853 11.1113 3.97569e-16 0 -1.59028e-15 -72.9712 -5.69264 -44.2201 0.000813053 -0.000166281 -73.7655 -63.4812 -61.4449 -66.4162 -2.90036 6.85543 2.43053 5.72136 11.4817 -5.0837 
-4.08869 33.5075 7.57893 -2.73092 -1.83342 -7.20716 7.95139e-16 -3.97569e-16 -0 5.29331 0.596902 -2.88483 -5.87437e-06 10.7762 -0.0816739 -23.0648 -19.9982 -3.99575 3.84071e-06 -17.99 -3.38583e-06 7.95139e-16 -3.97569e-16 -0 4.43088 -8.4309 -3.28012 9.85807e-06 31.011 0.0770052 5.03817 -23.1246 -5.8946 3.58975e-07 -15.2431 1.55981e-06 7.95139e-16 -3.97569e-16 -0 0.465825 -5.2129 2.71211 0.539992 14.257 1.19237 2.94717 12.4655 -15.0435 7.95139e-16 6.36111e-15 -0 64.3624 -6.26158 41.5456 -0.000890144 -0.000138067 67.1735 13.6651 -54.4692 16.563 -1.53235 18.4958 10.9824 3.97569e-16 -3.18055e-15 -7.95139e-16 -73.4074 -5.1417 -44.2835 -0.00167544 -0.000215458 -71.7021 -58.3946 -61.8856 -61.5078 -3.04496 6.88435 2.50731 5.47572 11.5119 -4.92862 
-4.13386 33.5229 7.65821 -2.54372 -1.89486 -7.40651 -5.96354e-16 7.95139e-16 -0 5.1541 0.986744 -3.06055 1.30137e-06 10.3783 -0.0757886 -23.5955 -20.4092 -3.62508 5.92616e-06 -12.4903 1.52068e-06 -5.96354e-16 7.95139e-16 -0 3.89171 -7.74278 -2.83544 -1.29548e-05 30.8893 0.0598875 3.97658 -23.071 -6.40685 8.77713e-07 -12.0745 3.40864e-06 -5.96354e-16 7.95139e-16 -0 0.445301 -5.42676 2.7482 0.536932 14.0149 1.25052 2.81843 12.1606 -15.0519 -1.59028e-15 0 3.18055e-15 64.9582 -4.8679 41.0748 -0.0208209 0.00125361 63.3703 15.037 -54.781 17.1654 -1.54496 18.2622 11.1079 -0 -3.18055e-15 -0 -74.1245 -3.99536 -43.7141 0.000557758 -8.84205e-05 -68.7092 -50.7836 -62.4712 -53.7725 -3.23502 6.60198 2.60404 5.14783 11.5734 -4.72254 
-4.1836 33.5203 7.77556 -2.6278 -2.07769 -7.74171 9.93923e-17 0 -3.18055e-15 5.3014 1.63704 -2.71352 -2.09498e-06 9.87573 -0.0715829 -23.917 -20.2548 -3.67205 -6.63521e-06 -13.6279 -3.24549e-06 9.93923e-17 0 -3.18055e-15 3.8182 -6.32652 -2.10991 -2.97339e-06 29.0716 0.0354146 2.53435 -20.986 -7.06625 7.85168e-07 -14.4072 -8.00711e-07 9.93923e-17 0 -3.18055e-15 0.424097 -5.66839 2.76345 0.772851 13.7674 1.30899 2.8271 12.1729 -14.983 7.95139e-16 0 3.18055e-15 65.8198 -3.66873 40.5589 0.009342 -0.000741998 57.9962 18.7266 -56.2879 19.9529 -1.47209 18.2971 11.1053 0 0 -7.95139e-16 -75.1997 -2.68683 -42.8178 -0.0012289 -0.000204487 -64.1729 -47.4911 -63.1649 -51.5029 -3.27024 6.56327 2.58174 4.7721 11.1932 -4.25723 
-4.22697 33.5031 7.87516 -2.85953 -2.04654 -8.06787 6.95746e-16 0 -0 5.60198 1.89899 -2.23097 -4.48073e-06 9.72544 -0.072613 -23.9318 -20.2375 -3.85988 3.46272e-06 -14.6048 2.43799e-06 6.95746e-16 0 -0 4.24504 -4.73236 -0.93328 5.08694e-06 25.6793 0.0100303 0.868408 -20.5548 -6.78342 4.05835e-07 -13.262 7.66553e-06 6.95746e-16 0 -0 0.394897 -5.92575 2.66913 1.16751 13.3844 1.25481 3.20207 12.1694 -14.9257 7.95139e-16 -6.36111e-15 6.36111e-15 66.6922 -2.50996 39.8722 -0.175486 0.0114128 51.7579 19.875 -57.246 20.6066 -1.32406 18.3357 11.1752 -3.97569e-16 -3.18055e-15 -0 -77.0533 -1.90852 -41.5197 0.00230011 3.83481e-05 -58.0917 -43.0397 -62.5153 -48.0527 -3.25535 6.32654 2.69174 4.49435 10.8892 -3.82604 
-4.26588 33.4799 8.00134 -3.20258 -2.10687 -8.19324 9.93923e-16 3.97569e-16 3.18055e-15 6.03277 2.1873 -1.53723 7.76114e-06 9.94193 -0.0793318 -24.3947 -20.2622 -4.59622 -1.92921e-06 -15.259 1.24079e-06 9.93923e-16 3.97569e-16 3.18055e-15 4.91969 -2.63163 0.801481 -2.58544e-06 21.9169 0.00154242 0.197382 -20.7189 -8.29844 9.07551e-08 -12.7946 3.82452e-06 9.93923e-16 3.97569e-16 3.18055e-15 0.299436 -6.145 2.47049 1.78819 13.1361 1.11539 3.62536 12.0685 -15.1213 -7.95139e-16 -6.36111e-15 3.18055e-15 67.93 -2.06772 38.6819 -0.127603 0.00833017 44.6564 22.4626 -58.4145 21.993 -1.41535 18.3042 11.0355 4.41391e-32 -3.18055e-15 7.95139e-16 -78.8499 -1.97028 -39.6894 0.0509368 0.00313636 -51.3316 -39.7424 -64.4596 -45.1267 -3.32777 5.97486 2.74639 4.34569 10.6329 -3.45741 
-4.26475 33.4632 8.11153 -3.15698 -2.06628 -7.95029 -1.98785e-16 -1.59028e-15 3.18055e-15 6.01803 2.11304 -1.14046 9.2714e-06 10.5192 -0.0875706 -24.622 -20.5433 -5.47097 1.88808e-06 -15.9234 -9.80206e-07 -1.98785e-16 -1.59028e-15 3.18055e-15 4.99183 -1.08061 1.35478 -1.76213e-05 18.7069 -0.00888156 -0.924866 -20.3161 -9.5413 7.22868e-07 -13.5729 -5.81547e-07 -1.98785e-16 -1.59028e-15 3.18055e-15 0.10777 -6.29231 2.17072 1.99982 12.8156 0.877605 4.45402 12.2038 -15.683 -1.59028e-15 4.77083e-15 6.36111e-15 69.933 -2.90298 37.2197 -0.0029484 6.13552e-05 37.3679 25.4022 -60.5389 24.522 -1.47534 18.4331 11.1486 0 0 -1.59028e-15 -80.9583 -3.04088 -38.2881 0.0221168 0.00135769 -42.2739 -40.3316 -65.586 -45.8282 -3.34258 5.54977 2.76074 4.31697 10.4429 -3.26422 
-4.24659 33.4864 8.21563 -2.57159 -2.09442 -7.47251 -0 -7.95139e-16 -0 5.48697 2.01821 -0.516784 -1.31422e-05 11.1771 -0.0894028 -25.6675 -20.9541 -6.94148 6.86016e-06 -11.3856 1.71821e-08 -0 -7.95139e-16 -0 4.29802 -0.463738 0.941594 -5.29258e-05 17.4391 -0.0152623 -1.66409 -19.9838 -9.73572 4.49741e-07 -9.9167 4.82843e-06 -0 -7.95139e-16 -0 -0.322111 -6.36903 1.8824 1.85599 12.715 0.705013 4.97112 12.2438 -16.4539 -7.95139e-16 1.59028e-15 -3.18055e-15 73.3146 -5.59259 34.7174 -0.00122248 -1.73106e-05 30.8994 28.5347 -63.7646 27.8369 -1.46765 18.4401 11.1193 -3.97569e-16 3.18055e-15 1.59028e-15 -82.9155 -5.74935 -36.9093 0.00723242 0.00037908 -32.1457 -33.7973 -66.2028 -40.6537 -3.42518 5.16026 2.63806 4.14283 10.0465 -2.99929 
-4.22494 33.5079 8.32154 -2.08635 -2.06089 -6.86088 2.48481e-16 0 7.95139e-16 5.09059 1.95986 -0.105041 -1.432e-05 11.6038 -0.0897035 -27.0041 -20.847 -8.30618 5.23951e-06 -12.9927 4.32385e-06 2.48481e-16 0 7.95139e-16 3.34187 0.0229739 -0.625793 1.95437e-05 16.0246 0.0417218 4.65284 -18.0412 -6.84834 -7.48872e-07 -16.5669 2.8119e-06 2.48481e-16 0 7.95139e-16 -0.448515 -6.30636 1.66129 1.36619 12.6038 0.527355 5.12923 12.4204 -17.5076 0 1.59028e-15 -0 77.4144 -10.8329 31.4793 -9.54762e-05 -9.89782e-05 26.0307 34.6317 -68.505 33.8625 -1.2941 18.4715 11.3908 -7.95139e-16 0 -0 -85.0875 -11.139 -35.6139 -0.000373224 -0.000122469 -22.2636 -32.8709 -69.5395 -40.3658 -3.57154 4.75202 2.52787 4.08193 9.46351 -2.73876 
-4.20552 33.5065 8.43778 -1.90323 -1.83904 -6.44363 1.2424e-16 1.19271e-15 -0 4.92664 1.88747 -0.289207 1.12411e-05 11.7861 -0.0918651 -27.6846 -21.1648 -8.81171 1.40803e-06 -14.1641 1.04874e-07 1.2424e-16 1.19271e-15 -0 3.03282 0.298452 -0.612738 9.7859e-06 14.9622 0.0755067 8.77623 -16.6143 -6.18824 3.16731e-07 -21.6254 -2.30818e-06 1.2424e-16 1.19271e-15 -0 -0.35776 -6.34872 1.56147 1.14587 12.7256 0.41698 5.33679 12.6517 -18.9164 -7.95139e-16 -3.18055e-15 3.18055e-15 80.1245 -18.22 28.8517 9.48412e-05 -9.50096e-05 22.6282 39.1598 -73.578 38.5299 -1.52397 18.5245 12.1957 3.97569e-16 6.36111e-15 -0 -88.3714 -21.0454 -35.5884 0.000660858 3.85347e-05 -13.2975 -26.6533 -68.0639 -34.5172 -3.99063 4.33476 2.4912 3.98363 8.53645 -2.58387 
